<?xml version="1.0" encoding="UTF-8"?>
<svg id="Layer_1" data-name="Layer 1" xmlns="http://www.w3.org/2000/svg" viewBox="0 0 48 48">
  <path d="M43.125,15.899l-3.125-2.5v-4.4c0-1.654-1.346-3-3-3h-6.25l-3.625-2.9c-1.812-1.451-4.44-1.452-6.25,0l-3.626,2.901h-6.25c-1.654,0-3,1.346-3,3v4.399l-3.125,2.499c-1.192,.953-1.875,2.375-1.875,3.901v21.2c0,2.757,2.243,5,5,5H40c2.757,0,5-2.243,5-5V19.8c0-1.526-.684-2.948-1.875-3.9Zm-3.125,.061l1.875,1.501c.2,.16,.369,.345,.519,.544l-2.395,1.915v-3.961ZM22.125,4.66c1.086-.87,2.662-.871,3.75,0l1.674,1.339h-7.099l1.675-1.34Zm-12.125,4.34c0-.551,.449-1,1-1h26c.551,0,1,.449,1,1v12.521l-10.25,8.199-.625-.5c-1.812-1.451-4.44-1.451-6.25,0l-.625,.5-10.25-8.199V9Zm-3.875,8.461l1.875-1.501v3.961l-2.395-1.915c.15-.199,.319-.385,.519-.545Zm-1.125,23.539V20.082l13.649,10.918-13.521,10.819c-.075-.262-.128-.533-.128-.819Zm35,3H8c-.638,0-1.228-.204-1.715-.545l15.841-12.675c1.086-.87,2.663-.871,3.75,0l15.84,12.674c-.487,.341-1.077,.545-1.715,.545Zm3-3c0,.286-.053,.557-.128,.819l-13.522-10.819,13.649-10.918v20.918Z"/>
  <path d="M28.12,24.859c.473-.285,.626-.899,.341-1.373-.286-.474-.901-.625-1.373-.341-.929,.56-1.997,.855-3.089,.855-3.309,0-6-2.691-6-6s2.691-6,6-6,6,2.691,6,6.028c-.005,1.069-.969,1.973-2.106,1.973h0c-.262,0-.506-.105-.687-.295-.18-.19-.272-.438-.258-.701l.152-2.9c.028-.545-.171-1.085-.547-1.481s-.904-.623-1.45-.623h-.446c-2.453,0-4.554,1.993-4.682,4.451-.049,.941,.276,1.83,.916,2.504,.639,.674,1.51,1.045,2.452,1.045,.91,0,1.752-.36,2.399-.937,.005,.006,.009,.013,.014,.019,.553,.583,1.332,.918,2.137,.919h.001c2.254,0,4.096-1.778,4.106-4,0-4.411-3.589-8-8-8s-8,3.589-8,8,3.589,8,8,8c1.455,0,2.88-.395,4.12-1.141Zm-3.145-6.411s0,0,0,0v.004c-.045,.839-.792,1.547-1.632,1.547-.388,0-.744-.15-1.001-.421-.258-.272-.389-.635-.369-1.031,.072-1.381,1.302-2.547,2.685-2.547h.446l-.128,2.448Z"/>
</svg>